<?xml version="1.0" encoding="iso-8859-1"?>
<!-- Generator: Adobe Illustrator 13.0.0, SVG Export Plug-In . SVG Version: 6.00 Build 14948)  -->
<!DOCTYPE svg PUBLIC "-//W3C//DTD SVG 1.1//EN" "http://www.w3.org/Graphics/SVG/1.1/DTD/svg11.dtd">
<svg xmlns="http://www.w3.org/2000/svg" xmlns:xlink="http://www.w3.org/1999/xlink" version="1.1" id="Layer_1" x="0px" y="0px" width="100px" height="100px" viewBox="0 0 100 100" enable-background="new 0 0 100 100" xml:space="preserve">












<g>
	
		<linearGradient id="SVGID_1_" gradientUnits="userSpaceOnUse" x1="1382.5303" y1="-952.4678" x2="1426.3652" y2="-952.4678" gradientTransform="matrix(0.6153 -0.7884 0.7884 0.6153 -62.5672 1733.853)">
		<stop offset="0" style="stop-color:#ADADAD"/>
		<stop offset="1" style="stop-color:#BDBDBD"/>
	</linearGradient>
	<path fill="url(#SVGID_1_)" d="M33.381,27.053c7.445-9.556,21.218-11.252,30.772-3.797c9.542,7.444,11.239,21.222,3.788,30.762   c-3.079,3.959-7.269,6.547-11.781,7.701c-0.648-2.41-1.118-4.876-1.316-7.342c2.764-0.831,5.317-2.493,7.235-4.943   c4.908-6.298,3.792-15.389-2.505-20.314c-6.308-4.911-15.409-3.803-20.32,2.5C34.609,37.566,35.357,46,40.742,51.064   c-0.609,2.436-1.132,5.185-1.438,8.198c-0.738-0.435-1.447-0.922-2.135-1.457C27.638,50.361,25.926,36.579,33.381,27.053"/>
	<g>
		<path fill="none" d="M48.112,90.39c-0.07,0.115-0.135,0.252-0.194,0.364C47.977,90.642,48.042,90.505,48.112,90.39z"/>
		<path fill="none" d="M47.453,92.116c0.025-0.153,0.045-0.294,0.1-0.432C47.498,91.822,47.478,91.963,47.453,92.116z"/>
		<path fill="none" d="M52.418,68.036c-0.029-0.206-0.06-0.419-0.1-0.636v0.091C52.338,67.696,52.383,67.876,52.418,68.036z"/>
		<path fill="none" d="M47.872,90.824c-0.055,0.11-0.09,0.215-0.145,0.319C47.782,91.039,47.817,90.935,47.872,90.824z"/>
		<path fill="none" d="M48.122,90.379c0.834-1.396,2.15-2.604,2.705-4.091v0.01C50.262,87.775,48.956,88.983,48.122,90.379z"/>
		<path fill="none" d="M47.688,91.255c-0.04,0.114-0.07,0.203-0.109,0.318C47.618,91.468,47.647,91.369,47.688,91.255z"/>
		
			<linearGradient id="SVGID_2_" gradientUnits="userSpaceOnUse" x1="1712.0996" y1="-448.4214" x2="1712.0996" y2="-440.4432" gradientTransform="matrix(-0.6065 -0.7951 -0.7951 0.6065 734.2192 1697.5735)">
			<stop offset="0" style="stop-color:#5D9D5D"/>
			<stop offset="1" style="stop-color:#7A9E5E"/>
		</linearGradient>
		<path fill="url(#SVGID_2_)" d="M47.578,91.573c0.04-0.115,0.069-0.204,0.109-0.318l0.04-0.111c0.054-0.104,0.09-0.209,0.145-0.319    l0.035-0.045c0.069-0.138,0.135-0.274,0.205-0.39l0.01-0.011c0.834-1.396,2.141-2.604,2.705-4.081v-0.01    c0.104-0.254,0.175-0.523,0.215-0.796c0.104-0.046,0.17-0.111,0.17-0.111c0.879-2.207,1.901-6.037,1.901-11.723    c-0.156-1.869-0.399-3.808-0.694-5.622c-0.035-0.16-0.08-0.34-0.109-0.489l0.01-0.146c-0.274-1.66-0.568-3.182-0.829-4.39    c-2.14-5.784-2.245-15.534-1.746-21.238c-6.337,14.867-5.668,33.886-2.495,50.939c0.369-0.096,0.305-0.345,0.205-0.596    c0.025-0.153,0.045-0.294,0.1-0.432C47.553,91.685,47.568,91.608,47.578,91.573z"/>
		
			<linearGradient id="SVGID_3_" gradientUnits="userSpaceOnUse" x1="1693.9521" y1="-447.3667" x2="1693.9521" y2="-439.8265" gradientTransform="matrix(-0.6065 -0.7951 -0.7951 0.6065 734.2192 1697.5735)">
			<stop offset="0" style="stop-color:#5D9D5D"/>
			<stop offset="1" style="stop-color:#7A9E5E"/>
		</linearGradient>
		<path fill="url(#SVGID_3_)" d="M48.122,90.379l-0.01,0.011L48.122,90.379z"/>
		
			<linearGradient id="SVGID_4_" gradientUnits="userSpaceOnUse" x1="1160.0205" y1="-1004.7007" x2="1181.085" y2="-1004.7007" gradientTransform="matrix(0.807 -0.5905 0.5905 0.807 -296.0372 1587.1154)">
			<stop offset="0" style="stop-color:#949494"/>
			<stop offset="1" style="stop-color:#8F8F8F"/>
		</linearGradient>
		<path fill="url(#SVGID_4_)" d="M48.122,90.379l-0.01,0.011L48.122,90.379z"/>
		
			<linearGradient id="SVGID_5_" gradientUnits="userSpaceOnUse" x1="1693.7656" y1="-449.3906" x2="1693.7656" y2="-441.0184" gradientTransform="matrix(-0.6065 -0.7951 -0.7951 0.6065 734.2192 1697.5735)">
			<stop offset="0" style="stop-color:#5D9D5D"/>
			<stop offset="1" style="stop-color:#7A9E5E"/>
		</linearGradient>
		<path fill="url(#SVGID_5_)" d="M47.917,90.754l-0.045,0.07C47.872,90.824,47.907,90.779,47.917,90.754z"/>
		
			<linearGradient id="SVGID_6_" gradientUnits="userSpaceOnUse" x1="1159.9824" y1="-1004.5054" x2="1181.9338" y2="-1004.5054" gradientTransform="matrix(0.807 -0.5905 0.5905 0.807 -296.0372 1587.1154)">
			<stop offset="0" style="stop-color:#949494"/>
			<stop offset="1" style="stop-color:#8F8F8F"/>
		</linearGradient>
		<path fill="url(#SVGID_6_)" d="M47.917,90.754l-0.045,0.07C47.872,90.824,47.907,90.779,47.917,90.754z"/>
		
			<linearGradient id="SVGID_7_" gradientUnits="userSpaceOnUse" x1="1695.8174" y1="-448.3853" x2="1695.8174" y2="-440.4271" gradientTransform="matrix(-0.6065 -0.7951 -0.7951 0.6065 734.2192 1697.5735)">
			<stop offset="0" style="stop-color:#5D9D5D"/>
			<stop offset="1" style="stop-color:#7A9E5E"/>
		</linearGradient>
		<path fill="url(#SVGID_7_)" d="M51.041,85.492c-0.04,0.272-0.11,0.542-0.215,0.796l0.085-0.113    c0.109-0.251,0.229-0.535,0.349-0.844C51.26,85.331,51.146,85.446,51.041,85.492z"/>
		
			<linearGradient id="SVGID_8_" gradientUnits="userSpaceOnUse" x1="1693.3135" y1="-442.4336" x2="1693.3135" y2="-436.8052" gradientTransform="matrix(-0.6065 -0.7951 -0.7951 0.6065 734.2192 1697.5735)">
			<stop offset="0" style="stop-color:#5D9D5D"/>
			<stop offset="1" style="stop-color:#7A9E5E"/>
		</linearGradient>
		<path fill="url(#SVGID_8_)" d="M47.578,91.573c-0.01,0.035-0.025,0.07-0.025,0.07S47.568,91.608,47.578,91.573z"/>
		
			<linearGradient id="SVGID_9_" gradientUnits="userSpaceOnUse" x1="1160.1826" y1="-1004.0381" x2="1174.9382" y2="-1004.0381" gradientTransform="matrix(0.807 -0.5905 0.5905 0.807 -296.0372 1587.1154)">
			<stop offset="0" style="stop-color:#949494"/>
			<stop offset="1" style="stop-color:#8F8F8F"/>
		</linearGradient>
		<path fill="url(#SVGID_9_)" d="M47.578,91.573c-0.01,0.035-0.025,0.07-0.025,0.07S47.568,91.608,47.578,91.573z"/>
		
			<linearGradient id="SVGID_10_" gradientUnits="userSpaceOnUse" x1="1693.5527" y1="-448.9468" x2="1693.5527" y2="-440.7592" gradientTransform="matrix(-0.6065 -0.7951 -0.7951 0.6065 734.2192 1697.5735)">
			<stop offset="0" style="stop-color:#5D9D5D"/>
			<stop offset="1" style="stop-color:#7A9E5E"/>
		</linearGradient>
		<path fill="url(#SVGID_10_)" d="M47.728,91.144l-0.04,0.111L47.728,91.144z"/>
		
			<linearGradient id="SVGID_11_" gradientUnits="userSpaceOnUse" x1="1160.0342" y1="-1004.2842" x2="1181.261" y2="-1004.2842" gradientTransform="matrix(0.807 -0.5905 0.5905 0.807 -296.0372 1587.1154)">
			<stop offset="0" style="stop-color:#949494"/>
			<stop offset="1" style="stop-color:#8F8F8F"/>
		</linearGradient>
		<path fill="url(#SVGID_11_)" d="M47.728,91.144l-0.04,0.111L47.728,91.144z"/>
		
			<linearGradient id="SVGID_12_" gradientUnits="userSpaceOnUse" x1="1165.9668" y1="-1015.2319" x2="1175.6257" y2="-1015.2319" gradientTransform="matrix(0.807 -0.5905 0.5905 0.807 -296.0372 1587.1154)">
			<stop offset="0" style="stop-color:#ADADAD"/>
			<stop offset="1" style="stop-color:#BDBDBD"/>
		</linearGradient>
		<polygon fill="url(#SVGID_12_)" points="53.122,73.754 53.107,73.604 53.112,73.658   "/>
		
			<linearGradient id="SVGID_13_" gradientUnits="userSpaceOnUse" x1="1704.2031" y1="-447.9346" x2="1704.2031" y2="-440.7141" gradientTransform="matrix(-0.6065 -0.7951 -0.7951 0.6065 734.2192 1697.5735)">
			<stop offset="0" style="stop-color:#5D9D5D"/>
			<stop offset="1" style="stop-color:#7A9E5E"/>
		</linearGradient>
		<polygon fill="url(#SVGID_13_)" points="53.122,73.754 53.107,73.604 53.112,73.658   "/>
		
			<linearGradient id="SVGID_14_" gradientUnits="userSpaceOnUse" x1="1161.3594" y1="-1015.2319" x2="1180.2263" y2="-1015.2319" gradientTransform="matrix(0.807 -0.5905 0.5905 0.807 -296.0372 1587.1154)">
			<stop offset="0" style="stop-color:#949494"/>
			<stop offset="1" style="stop-color:#8F8F8F"/>
		</linearGradient>
		<polygon fill="url(#SVGID_14_)" points="53.122,73.754 53.107,73.604 53.112,73.658   "/>
	</g>
	<g>
		<path fill="#EFEFEF" d="M76.021,12.458C60.463-1.5,36.56-0.21,22.608,15.327C8.661,30.881,9.944,54.782,25.493,68.739    c3.663,3.293,7.798,5.719,12.15,7.33l0.818-9.036c-2.545-1.188-4.976-2.76-7.181-4.752c-6.003-5.383-9.231-12.649-9.631-20.113    c-0.409-7.475,2.026-15.054,7.406-21.049c5.394-6.001,12.665-9.236,20.124-9.645c7.465-0.389,15.045,2.041,21.039,7.42    c5.992,5.393,9.235,12.66,9.636,20.124c0.397,7.464-2.026,15.034-7.411,21.048c-3.997,4.437-9.021,7.364-14.396,8.74l1.097,8.659    c7.367-1.667,14.312-5.564,19.751-11.621C92.847,50.306,91.55,26.405,76.021,12.458z"/>
	</g>
	
		<linearGradient id="SVGID_15_" gradientUnits="userSpaceOnUse" x1="1153.709" y1="-1003.0049" x2="1164.5293" y2="-1003.0049" gradientTransform="matrix(0.807 -0.5905 0.5905 0.807 -296.0372 1587.1154)">
		<stop offset="0" style="stop-color:#5D9D5D"/>
		<stop offset="1" style="stop-color:#7A9E5E"/>
	</linearGradient>
	<path fill-rule="evenodd" clip-rule="evenodd" fill="url(#SVGID_15_)" d="M47.408,91.015c2.021,0.374,2.34-0.944,4.361-0.56   c-1.507,3.094-5.11,6.766-9.795,4.936c0.649-2.251,3.657-2.171,5.444-3.294"/>
</g>
</svg>
