<?xml version="1.0" encoding="iso-8859-1"?>
<!-- Generator: Adobe Illustrator 13.0.0, SVG Export Plug-In . SVG Version: 6.00 Build 14948)  -->
<!DOCTYPE svg PUBLIC "-//W3C//DTD SVG 1.1//EN" "http://www.w3.org/Graphics/SVG/1.1/DTD/svg11.dtd">
<svg version="1.1" id="Layer_1" xmlns="http://www.w3.org/2000/svg" xmlns:xlink="http://www.w3.org/1999/xlink" x="0px" y="0px"
	 width="100px" height="100px" viewBox="0 0 100 100" enable-background="new 0 0 100 100" xml:space="preserve">
<g>
	<path fill="#6B746F" d="M50.068,92.172c0.028,0.021,0.054,0.041,0.081,0.062c1.612-1.328,3.052-2.782,4.336-4.337
		c-0.02-0.013-0.037-0.027-0.056-0.039c-1.272,1.529-2.69,2.966-4.281,4.274c-0.027-0.021-0.053-0.04-0.081-0.061
		c-1.623-1.228-3.081-2.584-4.393-4.036c1.161-0.794,2.253-1.662,3.278-2.596c0.304-0.278,0.597-0.57,0.888-0.862V81.27
		c0.053,0.057,0.098,0.12,0.148,0.176c1.248-1.447,2.358-3.037,3.305-4.782c-0.011-0.014-0.024-0.03-0.036-0.044
		c-0.939,1.723-2.033,3.295-3.269,4.727c-1.298-1.396-2.47-2.93-3.483-4.61c0.638-0.786,1.23-1.647,1.753-2.613
		c0.601-1.128,1.192-2.435,1.425-4.133c0.04,0.182,0.11,0.328,0.157,0.501v-3.307c0.122-0.233,0.244-0.466,0.368-0.699
		c0.054,2.337,0.789,3.991,1.533,5.388c0.672,1.247,1.467,2.313,2.319,3.276c0.559-1.217,1.036-2.525,1.377-3.948
		c0.227-0.989,0.426-2.06,0.478-3.245c-0.06,1.146-0.256,2.183-0.478,3.145c-0.341,1.423-0.818,2.73-1.377,3.948
		c-0.853-0.963-1.647-2.03-2.319-3.276c-0.744-1.398-1.479-3.049-1.533-5.388c-0.262,0.497-0.52,0.99-0.784,1.49
		c0.003,0.066,0.009,0.126,0.013,0.19c-0.145-0.276-0.295-0.55-0.435-0.823c-0.056,2.336-0.786,3.99-1.533,5.39
		c-0.528,0.984-1.132,1.858-1.785,2.654c-0.794-1.527-1.466-3.188-1.907-5.048c-0.451-1.927-0.795-4.157-0.101-6.998
		c-0.478,0.511-0.958,1.032-1.428,1.549c-0.705,2.84-0.358,5.071,0.1,7.001c0.44,1.858,1.115,3.521,1.909,5.05
		c0.001,0.004,0.003,0.006,0.006,0.011c-1.238,1.232-2.592,2.275-4.025,3.158c-0.949-1.903-1.73-3.906-2.305-6.023
		c0.568-0.426,1.124-0.901,1.647-1.461c0.817-0.859,1.666-1.917,2.154-3.603c-0.095-0.412-0.182-0.824-0.278-1.231
		c-0.492,1.68-1.343,2.736-2.16,3.606c-0.526,0.561-1.091,1.04-1.666,1.464c-0.015-0.075-0.037-0.148-0.054-0.226
		c-0.419-1.908-0.679-3.921-0.651-6.066c1.42-0.286,2.938-0.785,4.567-1.678c0.45-0.714,0.894-1.426,1.34-2.143
		c-2.11,1.159-4.042,1.661-5.815,1.886c0.17-1.982,0.634-4.169,1.962-6.598c-0.71,0.447-1.431,0.9-2.14,1.346
		c-1.073,1.955-1.581,3.752-1.829,5.409c-0.109,0.005-0.216,0.009-0.323,0.013c-2.286,0.068-4.426-0.192-6.451-0.642
		c0,0,0,0-0.003-0.001c0.02-0.027,0.034-0.056,0.051-0.083c0.554-0.87,1.222-1.725,2.051-2.507c0.638-0.599,1.378-1.213,2.389-1.693
		c0.998,0.006,2.076-0.096,3.262-0.387c0.516-0.481,1.032-0.957,1.542-1.436c-2.841,0.696-5.066,0.352-6.997-0.104
		c-1.856-0.438-3.514-1.113-5.047-1.908c-0.026-0.016-0.049-0.029-0.075-0.041c0.026-0.027,0.049-0.051,0.075-0.075
		c1.025-0.931,2.166-1.794,3.517-2.523c0.833-0.445,1.756-0.881,2.857-1.173c0.334,0.037,0.677,0.065,1.043,0.074
		c0.245-0.127,0.487-0.258,0.731-0.387c0.247-0.021,0.495-0.039,0.761-0.043c-0.115-0.06-0.228-0.119-0.34-0.18
		c0.112-0.061,0.225-0.119,0.34-0.18c-0.266-0.004-0.517-0.021-0.763-0.043c-0.242-0.128-0.484-0.256-0.729-0.384
		c-0.364,0.006-0.708,0.036-1.039,0.074c-1.103-0.293-2.026-0.729-2.861-1.175c-1.351-0.726-2.491-1.592-3.517-2.522
		c-0.026-0.024-0.049-0.049-0.075-0.074c0.026-0.012,0.049-0.028,0.075-0.041c1.534-0.796,3.191-1.472,5.047-1.908
		c1.931-0.456,4.156-0.801,6.997-0.106c-0.511-0.476-1.026-0.955-1.542-1.434c-1.187-0.292-2.265-0.395-3.262-0.39
		c-1.01-0.479-1.751-1.092-2.389-1.692c-0.829-0.782-1.497-1.635-2.051-2.505c-0.017-0.028-0.031-0.056-0.051-0.083
		c0.003,0,0.003-0.001,0.003-0.001c2.025-0.449,4.165-0.709,6.451-0.642c0.107,0.004,0.214,0.008,0.323,0.012
		c0.248,1.66,0.755,3.456,1.829,5.41c0.709,0.45,1.43,0.898,2.14,1.347c-1.333-2.431-1.792-4.616-1.962-6.6
		c1.772,0.226,3.705,0.728,5.815,1.885c-0.446-0.712-0.89-1.427-1.34-2.143c-1.629-0.892-3.147-1.391-4.567-1.677
		c-0.028-2.144,0.232-4.158,0.651-6.065c0.018-0.076,0.039-0.15,0.054-0.226c0.575,0.426,1.14,0.903,1.666,1.466
		c0.817,0.869,1.668,1.924,2.16,3.604c0.096-0.408,0.183-0.819,0.278-1.231c-0.488-1.686-1.337-2.743-2.154-3.603
		c-0.523-0.561-1.079-1.036-1.647-1.461c0.574-2.118,1.356-4.119,2.301-6.025c1.436,0.885,2.791,1.926,4.03,3.16
		c-0.004,0.003-0.006,0.007-0.008,0.01c-0.794,1.529-1.469,3.192-1.909,5.052c-0.458,1.929-0.804,4.16-0.1,7
		c0.47,0.518,0.951,1.037,1.428,1.549c-0.694-2.841-0.35-5.071,0.101-6.998c0.441-1.86,1.113-3.523,1.907-5.049
		c0.652,0.797,1.257,1.674,1.785,2.654c0.747,1.404,1.478,3.053,1.533,5.39c0.139-0.275,0.29-0.548,0.435-0.823
		c-0.004,0.065-0.01,0.125-0.013,0.19c0.142,0.265,0.278,0.529,0.417,0.792v-3.307c0.292-1.053,0.685-1.974,1.109-2.773
		c0.683-1.257,1.487-2.334,2.344-3.299c-0.011-0.02-0.024-0.037-0.036-0.057c-0.842,0.955-1.636,2.017-2.308,3.255
		c-0.494,0.931-0.98,1.984-1.266,3.273c-0.233-1.697-0.824-3.002-1.425-4.135c-0.523-0.964-1.116-1.824-1.753-2.61
		c0.974-1.615,2.096-3.085,3.335-4.434v-3.306c0.065,0.065,0.138,0.129,0.203,0.195c0.07-0.066,0.14-0.136,0.214-0.202
		c1.3-1.183,2.707-2.264,4.228-3.214c-0.017-0.021-0.037-0.04-0.056-0.062c-1.499,0.941-2.89,2.006-4.172,3.176
		c-0.074,0.065-0.144,0.135-0.214,0.202c-0.354-0.361-0.717-0.714-1.091-1.056c-1.025-0.937-2.118-1.806-3.278-2.6
		c1.25-1.383,2.641-2.668,4.167-3.849V8.01c0.138,0.092,0.29,0.173,0.424,0.266c1.03-0.627,2.127-1.2,3.317-1.694
		c2.239-0.927,4.907-1.853,8.714-1.368c0.646,0.411,1.301,0.821,1.941,1.233c0.064,0.007,0.121,0.008,0.186,0.016
		c-0.698-0.45-1.421-0.901-2.127-1.351c-3.807-0.484-6.475,0.441-8.714,1.368c-1.19,0.495-2.287,1.068-3.317,1.695
		c-1.392-0.967-2.915-1.841-4.631-2.551c-2.248-0.932-4.914-1.854-8.712-1.369c-0.714,0.447-1.43,0.896-2.144,1.349
		c3.804-0.479,6.477,0.437,8.704,1.365c1.752,0.726,3.298,1.621,4.711,2.603c-0.09,0.067-0.179,0.131-0.266,0.196
		c-1.632,1.234-3.094,2.595-4.408,4.056c-0.908-0.504-1.849-0.963-2.837-1.367c-1.601-0.649-3.339-1.173-5.263-1.425
		c-2-0.265-4.347-0.43-7.302,0.779c-0.479,0.516-0.966,1.031-1.438,1.548c2.963-1.211,5.312-1.046,7.301-0.779
		c1.93,0.253,3.665,0.779,5.276,1.423c1.018,0.416,1.987,0.893,2.917,1.418c-0.781,0.985-1.513,2.002-2.189,3.052
		c-0.416,0.653-0.807,1.323-1.183,2.003c-2.098-1.006-4.364-1.73-6.791-2.035c-1.376-0.175-2.827-0.219-4.366-0.017
		c-1.6,0.212-3.449,0.57-5.488,2.112c-0.261,0.503-0.517,0.999-0.78,1.498c2.031-1.547,3.879-1.91,5.479-2.116
		c1.542-0.198,2.983-0.157,4.358,0.013c2.446,0.305,4.702,1.033,6.805,2.041c-0.914,1.865-1.672,3.828-2.23,5.893
		c-1.337-0.683-2.732-1.164-4.157-1.478c-1.755-0.384-3.577-0.525-5.458-0.317c0.128-0.446,0.272-0.897,0.458-1.35
		c0.466-1.118,1.085-2.386,2.601-3.563c-0.413,0.094-0.823,0.189-1.244,0.283c-1.511,1.17-2.126,2.44-2.59,3.56
		c-0.17,0.419-0.305,0.834-0.426,1.247c-0.782,0.148-1.583,0.373-2.387,0.707c-1.122,0.462-2.388,1.083-3.557,2.598
		c-0.101,0.411-0.188,0.819-0.29,1.236c1.181-1.516,2.45-2.141,3.562-2.599c0.803-0.333,1.597-0.556,2.374-0.706
		c-0.043,0.229-0.083,0.456-0.112,0.68c-0.276,2.026-0.149,3.996,0.27,5.886c0.24,1.085,0.58,2.154,1.032,3.192
		c-2.077,0.532-4.049,1.256-5.925,2.146c-0.757-1.801-1.305-3.717-1.559-5.754c-0.175-1.373-0.215-2.825-0.02-4.359
		c0.215-1.602,0.566-3.448,2.118-5.489c-0.506,0.267-0.998,0.529-1.498,0.789c-1.538,2.04-1.903,3.889-2.111,5.483
		c-0.202,1.542-0.154,2.989,0.014,4.365c0.257,2.028,0.799,3.932,1.554,5.725c-0.812,0.437-1.607,0.902-2.386,1.395
		c-0.949,0.608-1.868,1.266-2.765,1.962c-0.297-0.597-0.583-1.207-0.839-1.835c-0.656-1.61-1.171-3.341-1.422-5.261
		c-0.276-2.004-0.433-4.351,0.767-7.31c-0.511,0.482-1.022,0.957-1.542,1.433c-1.202,2.962-1.04,5.303-0.776,7.304
		c0.256,1.922,0.768,3.66,1.428,5.268c0.239,0.593,0.506,1.166,0.783,1.729c-1.564,1.38-3.022,2.919-4.331,4.652
		c-0.015,0.023-0.032,0.044-0.046,0.066c-0.708-1.12-1.351-2.328-1.896-3.648c-0.934-2.234-1.85-4.902-1.363-8.708
		c-0.453,0.716-0.905,1.431-1.355,2.144c-0.48,3.801,0.437,6.474,1.36,8.708c0.54,1.282,1.166,2.457,1.847,3.548
		c-0.681,1.095-1.307,2.269-1.847,3.551c-0.923,2.233-1.84,4.905-1.36,8.707c0.45,0.713,0.902,1.426,1.355,2.144
		c-0.486-3.807,0.43-6.473,1.363-8.709c0.545-1.319,1.188-2.526,1.896-3.646c0.014,0.02,0.031,0.043,0.046,0.063
		c1.309,1.736,2.767,3.275,4.329,4.652c-0.278,0.566-0.542,1.139-0.781,1.73c-0.661,1.605-1.172,3.345-1.428,5.267
		C9.21,67.354,9.047,69.7,10.25,72.659c0.52,0.478,1.032,0.95,1.542,1.433c-1.2-2.958-1.043-5.306-0.767-7.312
		c0.251-1.913,0.767-3.648,1.422-5.256c0.256-0.631,0.542-1.241,0.839-1.839c0.897,0.698,1.816,1.354,2.765,1.962
		c0.778,0.494,1.573,0.957,2.386,1.394c-0.755,1.791-1.297,3.697-1.554,5.725c-0.168,1.376-0.216,2.823-0.014,4.365
		c0.208,1.599,0.573,3.445,2.111,5.483c0.5,0.261,0.992,0.521,1.498,0.789c-1.551-2.042-1.903-3.887-2.118-5.489
		c-0.195-1.534-0.155-2.986,0.02-4.359c0.254-2.036,0.802-3.953,1.559-5.753c1.876,0.891,3.849,1.613,5.925,2.146
		c-0.453,1.039-0.792,2.107-1.032,3.195c-0.419,1.885-0.546,3.857-0.27,5.88c0.031,0.226,0.068,0.454,0.112,0.681
		c-0.777-0.148-1.57-0.373-2.374-0.702c-1.113-0.463-2.381-1.081-3.562-2.601c0.102,0.416,0.189,0.824,0.29,1.235
		c1.169,1.515,2.436,2.137,3.557,2.598c0.804,0.335,1.605,0.558,2.387,0.709c0.121,0.412,0.256,0.826,0.426,1.243
		c0.463,1.121,1.079,2.391,2.59,3.561c0.421,0.096,0.832,0.189,1.244,0.284c-1.515-1.177-2.134-2.446-2.601-3.562
		c-0.186-0.454-0.33-0.904-0.458-1.351c1.881,0.208,3.703,0.064,5.458-0.317c1.425-0.315,2.82-0.795,4.157-1.479
		c0.555,2.066,1.314,4.028,2.23,5.893c-2.103,1.01-4.358,1.736-6.805,2.041c-1.375,0.173-2.816,0.212-4.358,0.015
		c-1.6-0.206-3.448-0.567-5.479-2.113c0.264,0.496,0.52,0.992,0.78,1.494c2.04,1.541,3.888,1.9,5.488,2.113
		c1.539,0.202,2.99,0.158,4.366-0.013c2.427-0.309,4.693-1.034,6.791-2.038c0.376,0.681,0.767,1.35,1.183,2.003
		c0.676,1.051,1.408,2.069,2.189,3.053c-0.93,0.523-1.899,1.002-2.917,1.417c-1.612,0.648-3.347,1.171-5.276,1.423
		c-1.99,0.268-4.338,0.434-7.301-0.774c0.472,0.513,0.959,1.028,1.438,1.545c2.955,1.207,5.302,1.045,7.302,0.779
		c1.924-0.253,3.662-0.776,5.263-1.429c0.987-0.399,1.93-0.86,2.837-1.363c1.314,1.462,2.776,2.823,4.408,4.057
		c0.087,0.065,0.176,0.13,0.264,0.196c-1.411,0.982-2.958,1.877-4.709,2.603c-2.227,0.926-4.899,1.845-8.704,1.365
		c0.714,0.453,1.429,0.9,2.144,1.346c3.799,0.486,6.464-0.436,8.712-1.366c1.549-0.644,2.926-1.43,4.207-2.285v-3.298
		C49.919,92.043,49.987,92.113,50.068,92.172z M42.131,19.823c0.672-1.053,1.405-2.072,2.192-3.061
		c1.128,0.779,2.192,1.629,3.192,2.542c0.356,0.323,0.699,0.656,1.038,0.995c-1.292,1.388-2.455,2.916-3.465,4.587
		c-1.249-1.248-2.616-2.303-4.066-3.195C41.378,21.057,41.743,20.433,42.131,19.823z M27.51,50.674
		c0.617,0.332,1.286,0.655,2.04,0.922c-0.753,0.268-1.423,0.59-2.04,0.921c-1.349,0.726-2.49,1.591-3.516,2.521
		c-0.014,0.013-0.026,0.024-0.038,0.037c-1.673-1.013-3.193-2.183-4.575-3.479c1.381-1.296,2.901-2.465,4.575-3.479
		c0.012,0.011,0.024,0.024,0.038,0.038C25.02,49.085,26.161,49.949,27.51,50.674z M25.794,27.888
		c0.027-0.193,0.062-0.387,0.098-0.582c1.88-0.208,3.706-0.066,5.457,0.323c1.417,0.309,2.807,0.786,4.135,1.467
		c-0.015,0.073-0.037,0.143-0.051,0.214c-0.446,2.023-0.716,4.158-0.649,6.453c0.007,0.219,0.017,0.443,0.028,0.668
		c-0.502-0.043-0.997-0.066-1.474-0.082c-2.221-0.066-4.289,0.181-6.25,0.602c-0.449-1.034-0.787-2.097-1.025-3.179
		C25.653,31.882,25.519,29.908,25.794,27.888z M27.014,39.432c0.014,0.021,0.024,0.042,0.036,0.062
		c0.553,0.87,1.224,1.718,2.053,2.507c0.555,0.525,1.195,1.062,2.028,1.512c-0.759,0.092-1.472,0.234-2.142,0.395
		c-1.856,0.439-3.508,1.106-5.033,1.898c-1.142-1.286-2.105-2.681-2.916-4.154C22.93,40.735,24.918,39.983,27.014,39.432z
		 M17.408,43.688c0.696-0.445,1.408-0.862,2.136-1.261c0.817,1.488,1.79,2.9,2.948,4.202c-1.677,1.009-3.206,2.173-4.597,3.468
		c-0.049-0.053-0.101-0.106-0.15-0.158c-1.185-1.294-2.261-2.696-3.208-4.207C15.464,45.002,16.422,44.318,17.408,43.688z
		 M12.929,56.12c-1.514-1.346-2.925-2.847-4.201-4.524c1.276-1.678,2.688-3.177,4.199-4.523c0.963,1.547,2.062,2.979,3.268,4.299
		c0.067,0.076,0.141,0.149,0.211,0.224c-0.071,0.075-0.144,0.148-0.211,0.223C14.988,53.139,13.89,54.57,12.929,56.12z
		 M19.544,60.763c-0.729-0.396-1.44-0.814-2.136-1.259c-0.986-0.631-1.944-1.314-2.871-2.043c0.947-1.513,2.023-2.915,3.208-4.209
		c0.049-0.053,0.101-0.105,0.15-0.157c1.391,1.294,2.919,2.459,4.597,3.468C21.334,57.863,20.361,59.277,19.544,60.763z
		 M21.041,61.539c0.811-1.47,1.774-2.866,2.916-4.154c1.525,0.791,3.177,1.46,5.033,1.898c0.67,0.16,1.383,0.303,2.144,0.396
		c-0.835,0.447-1.474,0.986-2.03,1.511c-0.83,0.789-1.5,1.637-2.053,2.508c-0.014,0.02-0.021,0.042-0.036,0.061
		C24.918,63.207,22.93,62.455,21.041,61.539z M31.349,75.563c-1.751,0.39-3.577,0.528-5.457,0.322
		c-0.036-0.194-0.071-0.39-0.098-0.583c-0.275-2.021-0.141-3.993,0.27-5.884c0.238-1.082,0.576-2.146,1.025-3.177
		c1.961,0.418,4.029,0.664,6.25,0.6c0.478-0.016,0.972-0.039,1.474-0.08c-0.012,0.226-0.021,0.447-0.028,0.667
		c-0.067,2.294,0.203,4.431,0.649,6.455c0.015,0.071,0.036,0.139,0.051,0.211C34.155,74.776,32.765,75.253,31.349,75.563z
		 M44.323,86.429c-0.787-0.988-1.52-2.01-2.192-3.062c-0.388-0.608-0.755-1.233-1.109-1.867c1.45-0.893,2.818-1.945,4.066-3.194
		c1.007,1.673,2.174,3.199,3.465,4.585c-0.339,0.34-0.682,0.674-1.038,0.996C46.515,84.799,45.451,85.65,44.323,86.429z"/>
	<path fill="#B4C9B8" d="M96.636,41.133c0.029-0.792-0.003-1.637-0.117-2.551c-0.441-0.71-0.896-1.42-1.34-2.13
		c-0.003-0.006-0.006-0.012-0.009-0.016c0.112,0.914,0.143,1.759,0.114,2.552c-0.086,2.507-0.777,4.46-1.484,6.159
		c-0.705,1.702-1.565,3.209-2.514,4.586c-1.333-1.665-2.804-3.151-4.38-4.475c0.012-0.023,0.021-0.048,0.034-0.07
		c0.505-0.91,0.972-1.853,1.374-2.844c0.647-1.608,1.173-3.345,1.429-5.261c0.102-0.766,0.187-1.583,0.187-2.464
		c0-1.423-0.222-3.016-0.968-4.842c-0.495-0.462-0.991-0.921-1.491-1.38c-0.02-0.018-0.037-0.034-0.056-0.051
		c0.745,1.826,0.969,3.417,0.969,4.838c-0.002,0.882-0.089,1.7-0.191,2.466c-0.249,1.919-0.771,3.653-1.432,5.26
		c-0.436,1.07-0.937,2.087-1.486,3.061c-0.693-0.512-1.397-1.001-2.116-1.461c-0.975-0.623-1.986-1.196-3.021-1.726
		c0.012-0.027,0.023-0.055,0.034-0.08c1.07-2.167,1.841-4.507,2.155-7.04c0.087-0.704,0.134-1.43,0.143-2.174
		c0.004-0.708-0.029-1.434-0.121-2.182c-0.216-1.606-0.573-3.451-2.121-5.489c-0.466-0.243-0.925-0.492-1.394-0.733
		c-0.033-0.016-0.064-0.033-0.098-0.05c1.546,2.039,1.904,3.882,2.116,5.482c0.096,0.749,0.132,1.477,0.126,2.187
		c-0.004,0.745-0.056,1.47-0.143,2.175c-0.322,2.585-1.116,4.97-2.226,7.173c-1.904-0.858-3.908-1.549-6.017-2.035
		c0.017-0.028,0.025-0.06,0.042-0.089c0.824-1.481,1.397-3.04,1.742-4.637c0.34-1.549,0.495-3.153,0.388-4.794
		c0.704,0.149,1.422,0.354,2.145,0.656c1.113,0.458,2.383,1.081,3.562,2.594c-0.009-0.045-0.021-0.09-0.031-0.135
		c-0.083-0.365-0.168-0.731-0.252-1.101c-1.174-1.516-2.441-2.134-3.556-2.595c-0.672-0.274-1.341-0.469-1.996-0.616
		c-0.144-0.995-0.394-2.015-0.817-3.053c-0.453-1.087-1.058-2.312-2.473-3.458c0.039,0.003,0.078,0.008,0.118,0.013
		c0.296,0.02,0.593,0.043,0.897,0.084c1.598,0.206,3.44,0.564,5.486,2.112c-0.028-0.052-0.054-0.102-0.081-0.153
		c-0.243-0.448-0.474-0.896-0.717-1.341c-2.03-1.549-3.881-1.902-5.479-2.112c-1.539-0.202-2.982-0.163-4.366,0.009
		c-2.156,0.27-4.173,0.872-6.066,1.706c-0.577-1.168-1.214-2.3-1.908-3.392c-0.399-0.622-0.825-1.231-1.262-1.832
		c0.019-0.009,0.036-0.015,0.055-0.025c0.628-0.317,1.269-0.618,1.936-0.889c1.606-0.652,3.348-1.172,5.268-1.427
		c1.998-0.267,4.34-0.428,7.303,0.775c-0.048-0.051-0.094-0.101-0.142-0.151c-0.432-0.468-0.861-0.928-1.288-1.393
		c-2.963-1.215-5.306-1.043-7.308-0.782c-1.93,0.256-3.656,0.777-5.255,1.429c-0.627,0.254-1.231,0.535-1.825,0.831
		c-1.33-1.62-2.823-3.128-4.503-4.503c0.021-0.014,0.045-0.025,0.068-0.039c1.063-0.658,2.201-1.262,3.443-1.777
		c2.24-0.935,4.907-1.849,8.702-1.366c-0.06-0.039-0.123-0.079-0.186-0.118c-0.641-0.412-1.296-0.822-1.941-1.233
		c-3.807-0.485-6.475,0.44-8.714,1.368c-1.19,0.494-2.287,1.067-3.317,1.694c-0.135-0.093-0.287-0.174-0.424-0.266v3.298v0.102
		c0.078-0.062,0.146-0.129,0.227-0.189c0.028-0.021,0.054-0.04,0.081-0.06c1.588,1.307,3.008,2.743,4.281,4.274
		c0.019,0.022,0.039,0.042,0.056,0.062c-1.521,0.95-2.928,2.031-4.228,3.214c-0.074,0.065-0.144,0.135-0.214,0.202
		c-0.065-0.066-0.138-0.13-0.203-0.195v3.306v0.101c0.053-0.056,0.098-0.12,0.148-0.176c1.235,1.431,2.329,3.005,3.269,4.725
		c0.012,0.021,0.025,0.037,0.036,0.057c-0.856,0.965-1.661,2.042-2.344,3.299c-0.424,0.799-0.817,1.72-1.109,2.773v3.307v0.102
		c0.122,0.232,0.244,0.466,0.368,0.698c0.054-2.34,0.789-3.991,1.533-5.389c0.672-1.248,1.467-2.314,2.319-3.276
		c0.559,1.219,1.036,2.526,1.377,3.947c0.222,0.961,0.418,1.998,0.478,3.144c0.056,1.124-0.031,2.36-0.356,3.736
		c-0.011,0.044-0.011,0.081-0.02,0.125c0.472-0.516,0.951-1.033,1.432-1.545c0.35-1.429,0.437-2.702,0.376-3.861
		c-0.06-1.147-0.259-2.183-0.479-3.143c-0.338-1.402-0.801-2.69-1.351-3.894c0.01-0.009,0.021-0.016,0.032-0.026
		c1.256-1.152,2.617-2.136,4.055-2.961c0.851,1.916,1.536,3.93,2.019,6.053c0.005,0.028,0.015,0.054,0.021,0.083v0
		c-0.697,0.487-1.377,1.044-2.017,1.719c-0.812,0.861-1.643,1.906-2.139,3.57c-0.004,0.014-0.01,0.023-0.015,0.037
		c0.088,0.416,0.188,0.827,0.277,1.235c0.493-1.688,1.344-2.74,2.159-3.605c0.624-0.664,1.294-1.216,1.98-1.696
		c0.286,1.625,0.434,3.327,0.387,5.119c0,0.023,0.003,0.044,0.003,0.067c-0.014,0.438-0.034,0.889-0.067,1.349
		c-1.401,0.289-2.891,0.788-4.488,1.666c-0.424,0.663-0.839,1.331-1.263,1.997c-0.032,0.047-0.062,0.096-0.094,0.145
		c2.018-1.107,3.867-1.609,5.572-1.848c0.009,0,0.017-0.002,0.023-0.004c-0.268,1.459-0.763,3.024-1.663,4.702
		c-0.028,0.049-0.046,0.096-0.074,0.147c0.717-0.452,1.425-0.901,2.141-1.352c0.708-1.29,1.169-2.511,1.473-3.669
		c0.232-0.012,0.461-0.022,0.686-0.03c1.854-0.051,3.604,0.118,5.278,0.418c0.025,0.004,0.055,0.006,0.084,0.011
		c-0.31,0.371-0.644,0.734-1.019,1.083c-0.831,0.787-1.851,1.592-3.433,2.093c-0.06,0.02-0.107,0.045-0.169,0.063
		c0.404,0.095,0.823,0.182,1.228,0.277c1.691-0.49,2.748-1.34,3.611-2.154c0.379-0.355,0.721-0.726,1.033-1.105
		c2.169,0.491,4.22,1.201,6.172,2.083c0.019,0.01,0.037,0.014,0.056,0.024c-0.906,1.419-1.977,2.755-3.232,3.973
		c-1.21-0.551-2.506-1.019-3.908-1.349c-1.928-0.451-4.163-0.798-7.003-0.101c-0.468,0.432-0.942,0.868-1.412,1.305
		c-0.043,0.042-0.089,0.083-0.133,0.124c2.841-0.692,5.067-0.351,6.997,0.102c1.343,0.319,2.586,0.766,3.745,1.288
		c0.03,0.014,0.062,0.024,0.092,0.037c-0.707,0.543-1.463,1.055-2.298,1.509c-1.371,0.734-2.973,1.434-5.23,1.516
		c-0.057,0.002-0.103,0.015-0.163,0.017c0.5,0.259,0.992,0.521,1.491,0.784c2.343-0.05,3.989-0.78,5.393-1.528
		c0.854-0.463,1.618-0.983,2.331-1.539c1.743,0.934,3.326,2.033,4.774,3.269c0.02,0.017,0.045,0.032,0.066,0.05
		c-1.464,1.254-3.073,2.369-4.841,3.314c-0.713-0.555-1.478-1.074-2.331-1.539c-1.403-0.747-3.05-1.476-5.393-1.523
		c-0.443,0.231-0.884,0.466-1.328,0.696c-0.054,0.03-0.106,0.058-0.163,0.087c2.351,0.051,3.989,0.779,5.394,1.53
		c0.802,0.436,1.526,0.926,2.206,1.447c0.03,0.021,0.062,0.042,0.092,0.064c-1.186,0.536-2.461,0.996-3.837,1.321
		c-1.898,0.446-4.089,0.771-6.864,0.125c-0.046-0.01-0.085-0.01-0.133-0.021c0.511,0.475,1.031,0.954,1.545,1.431
		c2.84,0.694,5.075,0.347,7.003-0.104c1.402-0.33,2.694-0.798,3.905-1.35c1.231,1.194,2.284,2.505,3.18,3.895
		c0.016,0.028,0.037,0.054,0.056,0.08c-1.968,0.895-4.039,1.611-6.228,2.105c-0.314-0.379-0.654-0.749-1.033-1.104
		c-0.863-0.812-1.92-1.662-3.611-2.153c-0.349,0.083-0.706,0.158-1.059,0.238c-0.055,0.014-0.112,0.025-0.169,0.04
		c1.688,0.49,2.739,1.34,3.602,2.155c0.343,0.32,0.645,0.655,0.931,0.994c0.027,0.03,0.059,0.059,0.084,0.091
		c-1.696,0.31-3.476,0.479-5.358,0.426c-0.225-0.006-0.453-0.017-0.686-0.027c-0.304-1.16-0.765-2.381-1.473-3.67
		c-0.692-0.436-1.376-0.869-2.066-1.307c-0.023-0.016-0.049-0.031-0.074-0.045c0.933,1.693,1.435,3.271,1.716,4.743
		c0.007,0.034,0.018,0.069,0.024,0.105c-1.687-0.232-3.516-0.731-5.505-1.81c-0.032-0.016-0.062-0.028-0.094-0.046
		c0.458,0.714,0.904,1.432,1.356,2.146c1.598,0.876,3.087,1.374,4.488,1.662c0.031,0.449,0.052,0.889,0.064,1.315
		c0,0.012,0.003,0.023,0.003,0.032c0.053,1.819-0.1,3.542-0.39,5.188c-0.684-0.479-1.356-1.032-1.98-1.693
		c-0.815-0.867-1.666-1.922-2.159-3.607c-0.084,0.392-0.18,0.778-0.263,1.171c-0.004,0.021-0.01,0.042-0.015,0.062
		c0.494,1.689,1.335,2.74,2.153,3.608c0.631,0.668,1.304,1.22,1.993,1.702c0.007,0.006,0.015,0.014,0.023,0.018
		c-0.482,2.153-1.177,4.196-2.038,6.135c-1.449-0.829-2.823-1.819-4.089-2.985c0.012-0.024,0.021-0.053,0.032-0.076
		c0.533-1.184,0.988-2.444,1.318-3.817c0.229-0.988,0.426-2.058,0.479-3.243c0.049-1.134-0.036-2.371-0.376-3.762
		c-0.473-0.505-0.946-1.01-1.412-1.522c-0.006-0.008-0.013-0.016-0.02-0.022c0.338,1.39,0.424,2.626,0.376,3.758
		c-0.052,1.186-0.251,2.256-0.478,3.245c-0.341,1.423-0.818,2.731-1.377,3.948c-0.853-0.963-1.647-2.029-2.319-3.276
		c-0.744-1.396-1.479-3.051-1.533-5.388c-0.124,0.233-0.246,0.466-0.368,0.699v3.307v0.1c0.113,0.41,0.252,0.782,0.394,1.151
		c0.002,0.01,0.004,0.016,0.006,0.022c0.218,0.575,0.455,1.119,0.709,1.602c0.672,1.237,1.466,2.301,2.308,3.254
		c0.012,0.014,0.025,0.03,0.036,0.044c-0.946,1.745-2.057,3.335-3.305,4.782c-0.05-0.056-0.095-0.119-0.148-0.176v3.309v0.102
		c0.068-0.066,0.138-0.13,0.205-0.197c0.07,0.066,0.138,0.135,0.212,0.199c1.282,1.169,2.673,2.234,4.172,3.177
		c0.019,0.012,0.036,0.026,0.056,0.039c-1.284,1.555-2.725,3.009-4.336,4.337c-0.027-0.021-0.053-0.041-0.081-0.062
		c-0.081-0.059-0.149-0.129-0.227-0.188v3.298v0.1c0.138-0.09,0.29-0.17,0.424-0.264c1.027,0.627,2.127,1.199,3.317,1.692
		c2.239,0.93,4.907,1.854,8.714,1.369c0.706-0.449,1.429-0.902,2.127-1.351c-0.064,0.008-0.121,0.009-0.186,0.015
		c-3.694,0.429-6.314-0.463-8.517-1.377c-1.268-0.53-2.43-1.146-3.512-1.821c0.023-0.019,0.043-0.043,0.068-0.062
		c1.65-1.357,3.125-2.845,4.435-4.439c0.594,0.294,1.198,0.576,1.825,0.83c1.599,0.654,3.325,1.174,5.255,1.431
		c2.002,0.259,4.345,0.431,7.308-0.78c0.472-0.518,0.95-1.029,1.43-1.547c-0.048,0.02-0.094,0.031-0.142,0.05
		c-2.893,1.146-5.194,0.986-7.161,0.727c-1.92-0.259-3.661-0.776-5.268-1.429c-0.684-0.278-1.345-0.588-1.99-0.916
		c0.019-0.026,0.036-0.051,0.055-0.076c0.417-0.576,0.823-1.158,1.207-1.755c0.694-1.092,1.331-2.223,1.908-3.392
		c1.894,0.833,3.91,1.437,6.066,1.704c1.384,0.173,2.827,0.213,4.366,0.015c1.598-0.213,3.448-0.567,5.479-2.114
		c0.271-0.497,0.526-0.996,0.798-1.496c-0.028,0.022-0.054,0.032-0.081,0.053c-2.013,1.495-3.83,1.856-5.405,2.063
		c-0.343,0.044-0.683,0.072-1.018,0.096c0.044-0.037,0.074-0.075,0.119-0.112c1.322-1.114,1.917-2.295,2.355-3.348
		c0.424-1.035,0.672-2.054,0.817-3.051c0.655-0.146,1.324-0.343,1.996-0.62c1.114-0.463,2.382-1.079,3.556-2.594
		c0.094-0.416,0.191-0.826,0.283-1.236c-0.009,0.014-0.021,0.021-0.031,0.034c-1.17,1.483-2.427,2.106-3.53,2.561
		c-0.723,0.302-1.44,0.507-2.145,0.655c0.107-1.641-0.048-3.246-0.388-4.795c-0.354-1.629-0.933-3.22-1.784-4.727
		c0.015-0.003,0.028-0.009,0.042-0.013c2.091-0.483,4.083-1.168,5.975-2.019c1.109,2.202,1.903,4.587,2.226,7.17
		c0.083,0.674,0.135,1.366,0.143,2.073c0.011,0.742-0.023,1.504-0.126,2.291c-0.206,1.558-0.57,3.354-2.019,5.328
		c-0.037,0.052-0.057,0.102-0.098,0.152c0.503-0.256,0.992-0.522,1.491-0.782c1.548-2.037,1.905-3.883,2.121-5.49
		c0.097-0.783,0.129-1.543,0.121-2.283c-0.01-0.708-0.059-1.399-0.143-2.073c-0.318-2.562-1.101-4.929-2.189-7.117
		c0.012-0.008,0.023-0.016,0.034-0.022c1.025-0.524,2.024-1.09,2.986-1.706c0.719-0.458,1.423-0.949,2.116-1.461
		c0.55,0.974,1.051,1.99,1.486,3.062c0.66,1.606,1.183,3.341,1.432,5.264c0.1,0.736,0.183,1.52,0.191,2.363
		c0.012,1.405-0.199,2.979-0.913,4.784c-0.02,0.052-0.033,0.1-0.056,0.151c0.52-0.473,1.033-0.951,1.547-1.429
		c0.764-1.87,0.978-3.495,0.968-4.944c-0.008-0.844-0.089-1.627-0.187-2.364c-0.256-1.915-0.781-3.649-1.429-5.26
		c-0.413-1.016-0.889-1.982-1.408-2.914c0.012-0.009,0.021-0.021,0.034-0.03c1.562-1.316,3.023-2.79,4.348-4.442
		c0.946,1.379,1.807,2.886,2.512,4.584c0.7,1.678,1.386,3.596,1.484,6.058c0.035,0.784,0,1.631-0.105,2.536
		c-0.006,0.041-0.006,0.075-0.009,0.117c0.444-0.715,0.904-1.431,1.349-2.145c0.117-0.952,0.151-1.833,0.117-2.654
		c-0.099-2.458-0.789-4.379-1.486-6.054c-0.674-1.628-1.489-3.08-2.396-4.406c0.013-0.017,0.019-0.035,0.031-0.05
		c0.893-1.317,1.698-2.752,2.364-4.357C95.855,45.592,96.552,43.639,96.636,41.133z M64.058,73.396
		c0.269-1.59,0.422-3.25,0.366-5.003c0-0.009-0.002-0.016-0.002-0.023c-0.021-0.76-0.065-1.552-0.177-2.377c0.002,0,0.004,0,0.008,0
		c0.553,0.05,1.095,0.077,1.618,0.093c1.93,0.057,3.744-0.121,5.478-0.446c0.857,1.513,1.434,3.11,1.794,4.738
		c0.332,1.494,0.476,3.042,0.384,4.627c0,0.034,0.004,0.066,0.001,0.102c-1.947,0.241-3.845,0.101-5.667-0.299
		c-1.299-0.287-2.582-0.717-3.812-1.314C64.052,73.461,64.055,73.428,64.058,73.396z M57.085,84.323
		c-0.42,0.657-0.864,1.299-1.327,1.931c-1.46-0.929-2.812-1.976-4.063-3.122c-0.072-0.066-0.142-0.135-0.21-0.202
		c0.015-0.019,0.029-0.04,0.046-0.06c1.215-1.429,2.303-2.999,3.231-4.714c1.264,1.164,2.635,2.146,4.079,2.971
		c0.014,0.008,0.027,0.019,0.042,0.028C58.333,82.244,57.736,83.304,57.085,84.323z M70.406,82.636
		c-0.829,0.006-1.636-0.045-2.409-0.139c-2.188-0.274-4.231-0.889-6.144-1.736c0.011-0.03,0.022-0.06,0.033-0.089
		c0.801-1.852,1.449-3.792,1.899-5.834c0.005-0.031,0.013-0.063,0.019-0.094c1.22,0.587,2.481,1.013,3.78,1.298
		c1.856,0.407,3.795,0.547,5.802,0.28c0.006-0.003,0.012-0.003,0.021-0.003c-0.145,1.01-0.386,2.052-0.829,3.108
		C72.165,80.438,71.618,81.564,70.406,82.636z M71.349,37.754c-1.733-0.325-3.548-0.504-5.478-0.448
		c-0.525,0.016-1.068,0.044-1.626,0.095c0.004-0.035,0.004-0.066,0.008-0.103c0.101-0.796,0.15-1.565,0.171-2.299
		c0-0.026-0.002-0.05-0.002-0.076c0.05-1.758-0.103-3.43-0.374-5.023c0.003-0.002,0.007-0.004,0.01-0.006
		c1.229-0.594,2.506-1.024,3.803-1.31c1.822-0.4,3.72-0.54,5.666-0.294c0.001,0,0.001,0,0.001,0
		c0.103,1.619-0.045,3.199-0.385,4.725C72.782,34.646,72.206,36.244,71.349,37.754z M61.887,22.621
		c1.904-0.841,3.935-1.454,6.11-1.723c0.775-0.096,1.58-0.145,2.409-0.139c1.212,1.071,1.759,2.195,2.172,3.205
		c0.429,1.022,0.661,2.028,0.809,3.007c0.005,0.034,0.017,0.069,0.021,0.102c-2.015-0.271-3.959-0.129-5.822,0.277
		c-1.299,0.287-2.561,0.712-3.78,1.299c-0.006-0.03-0.014-0.062-0.019-0.093c-0.458-2.073-1.117-4.044-1.933-5.922
		C61.864,22.628,61.876,22.625,61.887,22.621z M54.762,25.237c-0.939-1.739-2.043-3.328-3.277-4.772
		c0.014-0.015,0.029-0.029,0.046-0.043c0.053-0.053,0.108-0.108,0.164-0.158c1.251-1.147,2.604-2.196,4.063-3.121
		c0.463,0.629,0.907,1.27,1.327,1.926c0.636,1,1.217,2.034,1.756,3.096c0.012,0.026,0.03,0.05,0.042,0.075
		C57.423,23.07,56.037,24.063,54.762,25.237z M75.709,46.911c1.235-1.208,2.293-2.526,3.188-3.932
		c0.995,0.514,1.966,1.067,2.908,1.666c0.702,0.451,1.393,0.932,2.067,1.432c0.016,0.014,0.033,0.024,0.051,0.037
		c-0.754,1.081-1.573,2.104-2.454,3.066c-0.334,0.371-0.688,0.729-1.044,1.083c-1.446-1.242-3.036-2.347-4.775-3.286
		C75.671,46.956,75.688,46.933,75.709,46.911z M78.896,60.412c-0.907-1.428-1.983-2.771-3.247-3.994
		c0.021-0.012,0.038-0.025,0.06-0.037c1.716-0.932,3.287-2.023,4.716-3.249c0.356,0.353,0.71,0.712,1.044,1.082
		c0.861,0.943,1.663,1.945,2.403,3.001c0.016,0.022,0.035,0.042,0.051,0.065c-0.689,0.514-1.398,1.006-2.118,1.469
		C80.862,59.347,79.892,59.899,78.896,60.412z M85.567,55.983c-0.781-1.133-1.633-2.202-2.55-3.206
		c-0.338-0.37-0.688-0.729-1.044-1.081c0.016-0.016,0.032-0.033,0.05-0.051c0.338-0.336,0.672-0.678,0.994-1.028
		c0.917-1.005,1.769-2.075,2.55-3.208c1.499,1.26,2.904,2.668,4.19,4.239c0.015,0.017,0.031,0.032,0.046,0.05
		C88.506,53.286,87.084,54.708,85.567,55.983z"/>
</g>
</svg>
