<?xml version="1.0" encoding="utf-8"?>
<!-- Generator: Adobe Illustrator 18.1.0, SVG Export Plug-In . SVG Version: 6.00 Build 0)  -->
<svg version="1.0" id="Layer_1" xmlns="http://www.w3.org/2000/svg" xmlns:xlink="http://www.w3.org/1999/xlink" x="0px" y="0px"
	 viewBox="0 0 150 150" enable-background="new 0 0 150 150" xml:space="preserve">
<g>
	<path fill="#FF4338" d="M116.1,73.7c3.3,1.2,6.9-0.4,8.2-3.7c1.2-3.3-0.4-6.9-3.7-8.2c-3.3-1.2-6.9,0.4-8.2,3.7
		C111.2,68.8,112.8,72.4,116.1,73.7z"/>
	<path fill="#005984" d="M78.3,90.4c4.3,0.2,8.3,0.6,12.2,1c-6.7-25.2,9.3-69.3,9.3-69.3L75.5,68.8L33.9,33.1
		c30.7,32.8,37.1,49.6,38,57.1c0,0,0.1,0,0.1,0C74,90.2,76.1,90.3,78.3,90.4z"/>
	<path fill="#FF4338" d="M71.4,56.6c4.9,0,8.9-4,8.9-8.9c0-4.9-4-8.9-8.9-8.9c-4.9,0-8.9,4-8.9,8.9C62.5,52.6,66.5,56.6,71.4,56.6z"
		/>
	<path fill="#005984" d="M56.5,90.1C45.1,75.5,41.8,43.9,41.8,43.9l-1.1,37.4l-37.7-10c21.6,8.3,32.4,15.2,37.8,20.1
		c1.7-0.2,3.4-0.5,5-0.6C49.3,90.5,52.8,90.3,56.5,90.1z"/>
	<path fill="#FF4338" d="M34.4,74.9c3.2-1.5,4.5-5.3,2.9-8.5c-1.5-3.2-5.3-4.5-8.5-2.9c-3.2,1.5-4.5,5.3-2.9,8.5
		C27.4,75.1,31.2,76.4,34.4,74.9z"/>
	<path fill="#005984" d="M108.5,94.3c3.4-5.2,12.9-14.2,38.5-27l-36.6,13.4l-4.6-37.1c0,0-0.3,33.1-10.9,48.3c4,0.5,7.8,1.2,11.5,2
		C107.1,94,107.8,94.1,108.5,94.3z"/>
	<path fill="#333E48" d="M108.5,94.3c-0.7-0.1-1.3-0.3-2-0.4c-3.7-0.8-7.6-1.5-11.5-2c-0.6-0.1-1.2-0.2-1.8-0.2
		c-0.9-0.1-1.8-0.2-2.7-0.3c-3.8-0.4-7.9-0.7-12.2-1c-2.2-0.1-4.3-0.2-6.3-0.2c0,0-0.1,0-0.1,0C70,90.1,68,90,66.1,89.9
		c-3.3,0-6.5,0.1-9.6,0.2c-3.6,0.2-7.2,0.4-10.5,0.8c-1.7,0.2-3.3,0.4-5,0.6c-4.7,0.7-9.5,1.6-14.4,2.7c-2.8,0.8-5.7,1.6-8.8,2.5
		c-3,0.9-6.1,1.8-9.3,2.8l-0.1,0.2c0.9,0.2,1.9,0.3,2.8,0.5c0.9,0.2,1.9,0.3,2.8,0.5c1.4,0.4,2.7,0.9,4,1.5c1.2,0.5,2.5,1.2,3.9,2.1
		c0.9,0.6,1.8,1.2,2.7,1.8c0.9,0.6,1.7,1.2,2.4,1.7c0.5,0.5,1,1,1.5,1.4c0.5,0.4,1,0.9,1.5,1.4c2.3-0.9,4.4-1.8,6.4-2.7
		c2-0.9,4-1.6,6.1-2.2c3.3-1.3,6.7-2.4,10-3.2c3.3-0.8,6.8-1.6,10.4-2.3c2-0.2,4.2-0.5,6.4-0.8c2.3-0.3,4.7-0.6,7.2-0.9
		c4.4-0.3,8.5-0.5,12.5-0.8c4-0.3,7.7-0.3,11.3,0c7.2,0.2,14.3,1,21.2,2.4c6.9,1.4,14.5,3.5,22.7,6.2c-7-3-13.4-5.6-19.4-7.7
		C119.4,96.8,114,95.3,108.5,94.3z"/>
	<path fill="#333E48" d="M109.4,101.4c-3.6-0.4-7.4-0.5-11.3-0.3c-4,0.2-8.1,0.4-12.5,0.5c-2.5,0.3-4.9,0.5-7.2,0.8
		c-2.3,0.2-4.4,0.4-6.5,0.6c-3.6,0.6-7.1,1.3-10.4,2c-3.3,0.7-6.7,1.7-10.1,2.9c-2.1,0.6-4.1,1.3-6.2,2.1c-0.3,0.1-0.7,0.3-1,0.4
		c1,0.3,1.9,0.7,2.8,1.1c1.2,0.5,2.5,1.2,3.9,2.1c0.9,0.6,1.8,1.2,2.7,1.8c0.9,0.6,1.7,1.2,2.5,1.7c0.5,0.5,1,1,1.5,1.4
		c0.5,0.4,1,0.9,1.5,1.4c2.2-0.9,4.4-1.8,6.4-2.7c2-0.9,4-1.6,6.1-2.2c3.3-1.3,6.7-2.4,10-3.2c3.3-0.8,6.8-1.6,10.4-2.3
		c2-0.2,4.2-0.5,6.5-0.8c2.3-0.3,4.7-0.6,7.2-0.9c4.4-0.3,8.5-0.6,12.5-0.8c4-0.3,7.7-0.3,11.3,0c5,0.2,9.9,0.6,14.7,1.3
		c-4.8-1.5-9.3-2.8-13.6-3.8C123.6,102.8,116.6,101.8,109.4,101.4z"/>
</g>
</svg>
